<svg xmlns="http://www.w3.org/2000/svg" viewBox="110 20 100 32.216">
  <defs>
    <style>
      .cls-1 {
        fill: #fff;
      }

      .cls-2 {
        fill: #ffba00;
      }
    </style>
  </defs>
  <g id="LOGO" transform="translate(110 20)">
    <g id="Group_3" data-name="Group 3">
      <path id="Path_1" data-name="Path 1" class="cls-1" d="M13.782,15.869a8.568,8.568,0,0,1-7.8,5.1C1.949,20.964,0,19.152,0,14.227,0,9.268,2.394,0,9.542,0c2.565,0,4.583,1.026,4.583,3.659,0,1.436-.513,2.531-1.915,2.531a1.984,1.984,0,0,1-1.573-.718A3.1,3.1,0,0,0,11.9,2.941a1.525,1.525,0,0,0-1.676-1.676c-3.01,0-5.677,7.182-5.677,12.791,0,2.531.65,4.275,3.283,4.275A6.627,6.627,0,0,0,13.167,15.6Z"/>
      <path id="Path_2" data-name="Path 2" class="cls-1" d="M50.84,19.737l-1.984,9.3a4.436,4.436,0,0,0-.1.889c0,.752.342,1.163,1.129,1.163,1.06,0,1.813-1.2,2.223-2.565h1.163c-1.573,4.446-4.036,5.062-5.506,5.062a2.494,2.494,0,0,1-2.668-2.531,4.936,4.936,0,0,1-4.07,2.531c-1.847,0-3.625-1.163-3.625-4.412,0-3.694,2.257-9.576,7.045-9.576,1.573,0,2.223.616,2.223,1.4v.205l.308-1.436H50.84ZM41.4,28.8c0,2.12.889,2.12,1.368,2.12a2.725,2.725,0,0,0,2.257-2.394l1.3-6.19A1.043,1.043,0,0,0,45.2,21.31C42.906,21.31,41.4,26.235,41.4,28.8Z" transform="translate(-24.609 -12.897)"/>
      <path id="Path_3" data-name="Path 3" class="cls-1" d="M84.14,20,83.8,21.71A5.317,5.317,0,0,1,87.115,20,1.913,1.913,0,0,1,89,22.052a1.9,1.9,0,0,1-1.984,1.984c-1.539,0-.752-1.813-1.573-1.813a2.834,2.834,0,0,0-1.984,1.026L81.233,33.68H77.3L80.207,20Z" transform="translate(-50.864 -13.16)"/>
      <path id="Path_4" data-name="Path 4" class="cls-1" d="M124.169,4l-3.146,14.774a4.437,4.437,0,0,0-.1.889c0,.752.342,1.026,1.129,1.026,1.06,0,1.813-1.026,2.223-2.394h1.163c-1.573,4.446-4.036,4.891-5.506,4.891a2.5,2.5,0,0,1-2.668-2.36,4.878,4.878,0,0,1-4.036,2.531c-1.847,0-3.625-1.163-3.625-4.412,0-3.694,2.257-9.576,7.045-9.576,1.573,0,2.223.616,2.223,1.4v.068L120.2,4.547Zm-6.977,14.261L118.526,12a1.094,1.094,0,0,0-1.129-.958c-2.326,0-3.83,4.925-3.83,7.49,0,2.12.889,2.12,1.368,2.12a2.73,2.73,0,0,0,2.257-2.257Z" transform="translate(-72.117 -2.632)"/>
      <path id="Path_5" data-name="Path 5" class="cls-1" d="M165.04,6.84l-1.984,9.3a4.437,4.437,0,0,0-.1.889c0,.752.342,1.163,1.129,1.163,1.06,0,1.813-1.2,2.223-2.565h1.163c-1.573,4.446-4.036,5.062-5.506,5.062a2.494,2.494,0,0,1-2.668-2.531,4.936,4.936,0,0,1-4.07,2.531c-1.847,0-3.625-1.163-3.625-4.412,0-3.694,2.257-9.576,7.045-9.576,1.573,0,2.223.616,2.223,1.4v.205l.308-1.436h3.865ZM155.6,15.9c0,2.12.889,2.12,1.368,2.12a2.725,2.725,0,0,0,2.257-2.394l1.3-6.19A1.043,1.043,0,0,0,159.4,8.413C157.106,8.413,155.6,13.338,155.6,15.9ZM161.108,0h2.873l-3.317,5.164h-2.052Z" transform="translate(-99.753)"/>
      <path id="Path_6" data-name="Path 6" class="cls-1" d="M193.908,17l-.445,2.052a4.769,4.769,0,0,1,3.215-1.163c1.847,0,3.352,1.06,3.352,4.309,0,3.694-1.436,9.679-6.737,9.679a2.457,2.457,0,0,1-2.326-.992l-2.428,11.423L184.4,43.3,189.94,17Zm2.326,5.13c0-2.12-.889-2.257-1.368-2.257a2.447,2.447,0,0,0-1.881,1.334l-1.607,7.661a.981.981,0,0,0,1.026.616C195.275,29.483,196.233,24.695,196.233,22.13Z" transform="translate(-121.336 -11.186)"/>
      <path id="Path_7" data-name="Path 7" class="cls-1" d="M237.419,8.814l-1.984,9.3a4.437,4.437,0,0,0-.1.889c0,.752.342,1.026,1.129,1.026,1.06,0,2.052-1.026,2.462-2.394h1.163c-1.573,4.446-4.275,5.062-5.746,5.062-1.642,0-2.941-.992-2.941-3.283a8.873,8.873,0,0,1,.205-1.778l1.847-8.789h3.967ZM236.188,3a2.2,2.2,0,0,1,2.189,2.189,2.175,2.175,0,0,1-2.189,2.155,2.146,2.146,0,0,1-2.155-2.155A2.175,2.175,0,0,1,236.188,3Z" transform="translate(-152.262 -1.974)"/>
      <path id="Path_8" data-name="Path 8" class="cls-1" d="M263.241,23.058c.958-.205,1.642-1.368,1.949-1.881h.889c-.547,1.163-1.368,2.873-2.8,3.659-.342,5.267-3.078,8.584-6.5,8.584-2.531,0-4.378-1.2-4.378-4.309,0-3.146,1.778-9.713,7.421-9.713C261.942,19.365,263.07,20.63,263.241,23.058Zm-2.326,2.189c-.445-.171-.65-.547-.65-1.231a1.49,1.49,0,0,1,.752-1.436c-.068-1.163-.342-1.573-1.026-1.573-1.949,0-3.557,4.993-3.557,7.695,0,1.813.342,2.223,1.4,2.223C259.172,30.924,260.505,28.462,260.916,25.247Z" transform="translate(-166.08 -12.764)"/>
    </g>
    <g id="Group_4" data-name="Group 4" transform="translate(69.938 23.051)">
      <path id="Path_9" data-name="Path 9" class="cls-2" d="M209.63,77.116a.206.206,0,0,0,.137.034,4.069,4.069,0,0,0,1.949-.752l.1.342a4.228,4.228,0,0,1-2.257,1.06c-.205,2.36-1.471,3.83-3.044,3.83a1.79,1.79,0,0,1-2.018-2.018c0-1.471.855-4.514,3.488-4.514C209.083,75.064,209.63,75.782,209.63,77.116Zm-1.094.684c-.274-.068-.342-.274-.342-.547a.7.7,0,0,1,.41-.684c-.034-.547-.137-.752-.479-.752-.889,0-1.676,2.326-1.676,3.557,0,.855.171,1.026.65,1.026C207.681,80.433,208.33,79.3,208.536,77.8Z" transform="translate(-204.5 -72.464)"/>
      <path id="Path_10" data-name="Path 10" class="cls-2" d="M223.659,76.3c-.445,0-.787.547-.992,1.163l-.855,4.07H220l1.334-6.361h1.847l-.137.65a1.893,1.893,0,0,1,1.471-.718,1.272,1.272,0,0,1,1.4,1.436c0,1.026-.616,2.565-.616,3.283,0,.308.137.547.513.547.547,0,.787-.445,1.06-1.129h.547c-.718,2.086-1.676,2.36-2.36,2.36a1.362,1.362,0,0,1-1.5-1.436c0-.855.581-2.428.581-3.249C224.138,76.536,223.967,76.3,223.659,76.3Z" transform="translate(-214.699 -72.467)"/>
      <path id="Path_11" data-name="Path 11" class="cls-2" d="M243.217,67.9l-1.436,6.874a1.962,1.962,0,0,0-.034.41c0,.342.171.479.513.479a1.368,1.368,0,0,0,1.129-1.129h.547c-.718,2.086-1.984,2.36-2.668,2.36-.752,0-1.368-.445-1.368-1.539a3.834,3.834,0,0,1,.1-.821l1.368-6.361Z" transform="translate(-227.793 -67.729)"/>
      <path id="Path_12" data-name="Path 12" class="cls-2" d="M252.57,70.136l-.889,4.309a1.962,1.962,0,0,0-.034.41c0,.342.171.479.513.479a1.368,1.368,0,0,0,1.129-1.129h.547c-.718,2.086-1.984,2.36-2.668,2.36-.752,0-1.368-.445-1.368-1.539a3.834,3.834,0,0,1,.1-.821l.855-4.07h1.813Zm-.547-2.736a1.029,1.029,0,0,1,1.026,1.026,1.009,1.009,0,0,1-2.018,0A1,1,0,0,1,252.023,67.4Z" transform="translate(-234.308 -67.4)"/>
      <path id="Path_13" data-name="Path 13" class="cls-2" d="M262.294,76.3c-.445,0-.787.547-.992,1.163l-.855,4.07H258.6l1.334-6.361h1.847l-.137.65a1.893,1.893,0,0,1,1.471-.718,1.272,1.272,0,0,1,1.4,1.436c0,1.026-.616,2.565-.616,3.283,0,.308.137.547.513.547.547,0,.787-.445,1.06-1.129h.547c-.718,2.086-1.676,2.36-2.36,2.36a1.362,1.362,0,0,1-1.5-1.436c0-.855.581-2.428.581-3.249C262.738,76.536,262.567,76.3,262.294,76.3Z" transform="translate(-240.098 -72.467)"/>
      <path id="Path_14" data-name="Path 14" class="cls-2" d="M280.868,80.335a2.522,2.522,0,0,0,1.5-.684,2.061,2.061,0,0,1-2.189,1.881,1.781,1.781,0,0,1-1.984-2.018c0-1.471.821-4.514,3.42-4.514,1.129,0,1.4.581,1.4,1.231a2.913,2.913,0,0,1-2.907,2.668c0,.137-.034.274-.034.376C280.081,80.1,280.423,80.335,280.868,80.335Zm.889-4.651c-.65,0-1.265,1.4-1.539,2.633a2.084,2.084,0,0,0,1.847-2.086C282.065,75.889,282,75.684,281.757,75.684Z" transform="translate(-252.995 -72.401)"/>
    </g>
  </g>
</svg>
